<svg width="263" height="238" viewBox="0 0 263 238" fill="none" xmlns="http://www.w3.org/2000/svg">
 <style>
    path {
      fill: white;
    }
  </style>
<path fill-rule="evenodd" clip-rule="evenodd" d="M177.499 84.625H164.999V103.954C160.658 101.212 155.514 99.6252 150 99.6252C136.744 99.6252 125.63 108.796 122.656 121.14C119.683 108.796 108.569 99.6252 95.3125 99.6252C81.1097 99.6252 69.3658 110.153 67.4585 123.83C63.6195 110.917 51.6595 101.5 37.5 101.5C20.2411 101.5 6.25 115.491 6.25 132.75V151.5H18.75V132.75C18.75 122.395 27.1447 114 37.5 114C47.8553 114 56.25 122.395 56.25 132.75V151.5H68.75V137.017C72.5804 147.997 83.0264 155.875 95.3125 155.875C108.569 155.875 119.683 146.704 122.656 134.361C125.63 146.704 136.744 155.875 150 155.875C163.033 155.875 173.995 147.01 177.187 134.982C180.378 147.01 191.34 155.875 204.373 155.875C219.906 155.875 232.498 143.283 232.498 127.75C232.498 112.217 219.906 99.6252 204.373 99.6252C191.737 99.6252 181.047 107.958 177.499 119.429V84.625ZM165.625 127.75C165.625 136.38 158.63 143.375 150 143.375C141.371 143.375 134.375 136.38 134.375 127.75C134.375 119.121 141.371 112.125 150 112.125C158.63 112.125 165.625 119.121 165.625 127.75ZM95.3129 143.375C103.942 143.375 110.938 136.38 110.938 127.75C110.938 119.121 103.942 112.125 95.3129 112.125C86.6834 112.125 79.6879 119.121 79.6879 127.75C79.6879 136.38 86.6834 143.375 95.3129 143.375ZM204.373 143.375C213.003 143.375 219.998 136.38 219.998 127.75C219.998 119.121 213.003 112.125 204.373 112.125C195.744 112.125 188.748 119.121 188.748 127.75C188.748 136.38 195.744 143.375 204.373 143.375Z"/>
</svg>
